<svg width="165" height="35" viewBox="0 0 165 35" fill="none" xmlns="http://www.w3.org/2000/svg">
<g clip-path="url(#clip0_30_1497)">
<circle cx="14.074" cy="15.1853" r="15.0843" transform="rotate(7 14.074 15.1853)" fill="white"/>
</g>
<g clip-path="url(#clip1_30_1497)">
<circle cx="20.8376" cy="15.185" r="15.0843" transform="rotate(-7 20.8376 15.185)" fill="white"/>
</g>
<g clip-path="url(#clip2_30_1497)">
<circle cx="24.9101" cy="17.5274" r="15.0843" fill="#F2994A"/>
</g>
<g clip-path="url(#clip3_30_1497)">
<circle cx="15.0843" cy="15.0843" r="15.0843" transform="matrix(-1 0 0 1 25.2002 2.44313)" fill="#56CCF2"/>
</g>
<path d="M48.5 10.26V18.82C48.5 20.86 48.0067 22.3667 47.02 23.34C46.0467 24.3 44.52 24.78 42.44 24.78C40.3333 24.78 38.78 24.2933 37.78 23.32C36.7933 22.3333 36.3 20.82 36.3 18.78V10.26H39.42V18.78C39.42 19.94 39.64 20.8 40.08 21.36C40.52 21.92 41.32 22.2 42.48 22.2C43.6 22.2 44.36 21.92 44.76 21.36C45.1733 20.8 45.38 19.94 45.38 18.78V10.26H48.5ZM51.2042 24.5V10.26H54.3842L60.2442 19.8V10.26H63.2442V24.5H60.1242L54.2242 14.94V24.5H51.2042ZM69.1684 10.26V24.5H66.0284V10.26H69.1684Z" fill="#F2994A"/>
<path d="M70.3869 10.26H73.6469L76.8469 20.26L80.0869 10.26H83.3269L78.5869 24.5H75.0469L70.3869 10.26ZM95.2045 10.26V12.82H87.6245V15.92H94.5845V18.38H87.6245V21.88H95.3445V24.5H84.5245V10.26H95.2045ZM97.6133 10.26H104.693C106.107 10.26 107.26 10.5933 108.153 11.26C109.047 11.9267 109.493 12.94 109.493 14.3C109.493 15.1267 109.293 15.8533 108.893 16.48C108.493 17.0933 107.94 17.5333 107.233 17.8C108.46 18.0533 109.16 19.16 109.333 21.12C109.333 21.1867 109.347 21.3933 109.373 21.74C109.4 22.0867 109.427 22.3667 109.453 22.58C109.48 22.78 109.513 23.0267 109.553 23.32C109.593 23.6133 109.653 23.86 109.733 24.06C109.813 24.26 109.907 24.4067 110.013 24.5H106.773C106.667 24.2867 106.587 24.02 106.533 23.7C106.48 23.3667 106.433 22.9467 106.393 22.44C106.353 21.92 106.333 21.6333 106.333 21.58C106.227 20.58 105.973 19.8867 105.573 19.5C105.187 19.1133 104.493 18.92 103.493 18.92H100.713V24.5H97.6133V10.26ZM100.713 12.72V16.66H103.673C104.54 16.66 105.213 16.5267 105.693 16.26C106.187 15.98 106.433 15.44 106.433 14.64C106.433 13.8933 106.193 13.3867 105.713 13.12C105.247 12.8533 104.613 12.72 103.813 12.72H100.713ZM122.467 14.5H119.507C119.387 13.0867 118.487 12.38 116.807 12.38C116.087 12.38 115.52 12.5267 115.107 12.82C114.707 13.1 114.507 13.4933 114.507 14C114.507 14.1733 114.534 14.3267 114.587 14.46C114.64 14.5933 114.74 14.72 114.887 14.84C115.034 14.9467 115.18 15.04 115.327 15.12C115.474 15.1867 115.687 15.2667 115.967 15.36C116.26 15.44 116.52 15.5133 116.747 15.58C116.987 15.6467 117.32 15.7333 117.747 15.84C118.174 15.9467 118.547 16.0467 118.867 16.14C120.267 16.54 121.307 17.04 121.987 17.64C122.68 18.24 123.027 19.1 123.027 20.22C123.027 21.0333 122.86 21.7467 122.527 22.36C122.194 22.96 121.74 23.44 121.167 23.8C120.607 24.1467 119.987 24.4 119.307 24.56C118.64 24.7333 117.927 24.82 117.167 24.82C115.234 24.82 113.72 24.38 112.627 23.5C111.547 22.6067 111 21.3533 110.987 19.74H114.087C114.14 21.5267 115.214 22.42 117.307 22.42C118.12 22.42 118.76 22.2533 119.227 21.92C119.707 21.5733 119.947 21.1067 119.947 20.52C119.947 20.0267 119.727 19.6667 119.287 19.44C118.86 19.2133 117.954 18.9 116.567 18.5C116.487 18.4867 116.427 18.4733 116.387 18.46C116.347 18.4467 116.294 18.4333 116.227 18.42C116.16 18.3933 116.1 18.3733 116.047 18.36C115.567 18.2267 115.234 18.1333 115.047 18.08C114.86 18.0133 114.56 17.9067 114.147 17.76C113.747 17.6133 113.454 17.48 113.267 17.36C113.08 17.24 112.847 17.0733 112.567 16.86C112.3 16.6467 112.107 16.4267 111.987 16.2C111.867 15.96 111.754 15.6733 111.647 15.34C111.554 14.9933 111.507 14.62 111.507 14.22C111.507 12.9267 112.007 11.8933 113.007 11.12C114.007 10.3467 115.334 9.96 116.987 9.96C118.587 9.96 119.894 10.34 120.907 11.1C121.92 11.8467 122.44 12.98 122.467 14.5Z" fill="#56CCF2"/>
<path d="M128.055 10.26V24.5H124.915V10.26H128.055ZM141.394 10.26V12.92H137.114V24.5H133.974V12.92H129.694V10.26H141.394ZM155.18 10.26L149.88 19.02V24.5H146.8V18.96L141.48 10.26H145.04L148.36 15.96L151.72 10.26H155.18Z" fill="white"/>
<defs>
<clipPath id="clip0_30_1497">
<rect width="7.68627" height="26.2157" fill="white" transform="translate(23.0159 3.0493) rotate(7)"/>
</clipPath>
<clipPath id="clip1_30_1497">
<rect width="7.68627" height="26.2157" fill="white" transform="translate(4.26483 3.98598) rotate(-7)"/>
</clipPath>
<clipPath id="clip2_30_1497">
<rect width="7.68627" height="26.2157" fill="white" transform="translate(9.82622 4.39216)"/>
</clipPath>
<clipPath id="clip3_30_1497">
<rect width="7.68627" height="26.2157" fill="white" transform="matrix(-1 0 0 1 25.2001 4.39216)"/>
</clipPath>
</defs>
</svg>
